<?xml version="1.0" encoding="UTF-8" standalone="no"?>
<!DOCTYPE svg PUBLIC "-//W3C//DTD SVG 1.1//EN" "http://www.w3.org/Graphics/SVG/1.1/DTD/svg11.dtd">
<svg width="100%" height="100%" viewBox="0 0 667 667" version="1.1" xmlns="http://www.w3.org/2000/svg" xmlns:xlink="http://www.w3.org/1999/xlink" xml:space="preserve" xmlns:serif="http://www.serif.com/" style="fill-rule:evenodd;clip-rule:evenodd;stroke-linecap:round;stroke-linejoin:round;stroke-miterlimit:1.5;">
    <g transform="matrix(1.33333,0,0,1.33333,0,0)">
        <g id="Clear-Day" serif:id="Clear Day" transform="matrix(0.562283,0,0,0.562283,75.6924,92.5609)">
            <g transform="matrix(1.5,0,0,1.5,40,40)">
                <circle cx="180" cy="160" r="80" style="fill:none;stroke:black;stroke-width:21.34px;"/>
            </g>
            <g transform="matrix(0.12963,0,0,1,74.8148,5.68434e-14)">
                <path d="M40,280L580,280" style="fill:none;stroke:black;stroke-width:44.9px;"/>
            </g>
            <g transform="matrix(0.0917063,0.0916176,-0.706765,0.707449,341.513,-84.3062)">
                <path d="M40,280L580,280" style="fill:none;stroke:black;stroke-width:44.9px;"/>
            </g>
            <g transform="matrix(-0.12963,-1.58751e-17,1.22465e-16,-1,545.185,560)">
                <path d="M40,280L580,280" style="fill:none;stroke:black;stroke-width:44.9px;"/>
            </g>
            <g transform="matrix(-0.0917063,-0.0916176,0.706765,-0.707449,278.487,644.306)">
                <path d="M40,280L580,280" style="fill:none;stroke:black;stroke-width:44.9px;"/>
            </g>
            <g transform="matrix(1,0,0,0.12963,0,48.7037)">
                <path d="M310,10L310,550" style="fill:none;stroke:black;stroke-width:44.9px;"/>
            </g>
            <g transform="matrix(0.707449,0.706765,-0.0916176,0.0917063,254.163,-102.727)">
                <path d="M310,10L310,550" style="fill:none;stroke:black;stroke-width:44.9px;"/>
            </g>
            <g transform="matrix(-1,-1.22465e-16,1.58751e-17,-0.12963,620,511.296)">
                <path d="M310,10L310,550" style="fill:none;stroke:black;stroke-width:44.9px;"/>
            </g>
            <g transform="matrix(-0.707449,-0.706765,0.0916176,-0.0917063,365.837,662.727)">
                <path d="M310,10L310,550" style="fill:none;stroke:black;stroke-width:44.9px;"/>
            </g>
        </g>
    </g>
</svg>
