<?xml version="1.0" encoding="UTF-8" standalone="no"?>
<!DOCTYPE svg PUBLIC "-//W3C//DTD SVG 1.1//EN" "http://www.w3.org/Graphics/SVG/1.1/DTD/svg11.dtd">
<svg width="100%" height="100%" viewBox="0 0 500 500" version="1.1" xmlns="http://www.w3.org/2000/svg" xmlns:xlink="http://www.w3.org/1999/xlink" xml:space="preserve" xmlns:serif="http://www.serif.com/" style="fill-rule:evenodd;clip-rule:evenodd;stroke-linecap:round;stroke-linejoin:round;stroke-miterlimit:1.5;">
    <g id="Cloudy">
        <g id="Cloudy1" serif:id="Cloudy" transform="matrix(0.535614,0,0,0.535614,83.587,99.2757)">
            <path d="M362.742,352.533C376.194,323.308 405.744,303 440,303C480.767,303 514.87,331.762 523.106,370.087C552.017,371.697 575,395.686 575,425C575,455.355 550.355,480 520,480L280,480L280,479.956C279.338,479.985 278.671,480 278,480C253.164,480 233,459.836 233,435C233,410.164 253.164,390 278,390C284.912,390 291.462,391.562 297.316,394.351C300.126,369.411 321.314,350 347,350C352.5,350 357.793,350.89 362.742,352.533Z" style="fill:none;stroke:black;stroke-width:33.61px;"/>
        </g>
        <path id="Cloudy2" serif:id="Cloudy" d="M208.439,330.642L116.443,330.642L116.443,330.595C115.729,330.627 115.011,330.642 114.288,330.642C87.538,330.642 65.82,308.924 65.82,282.174C65.82,255.424 87.538,233.706 114.288,233.706C121.733,233.706 128.788,235.388 135.094,238.392C138.119,211.529 160.941,190.623 188.607,190.623C194.53,190.623 200.232,191.581 205.562,193.35C220.051,161.873 251.879,140 288.775,140C332.684,140 369.415,170.979 378.286,212.257C409.426,213.992 434.18,239.83 434.18,271.403C434.18,298.341 416.162,321.103 391.533,328.283C391.555,327.829 391.565,327.372 391.565,326.912C391.565,311.211 379.255,298.362 363.77,297.499C359.358,276.972 341.093,261.567 319.257,261.567C300.909,261.567 285.082,272.444 277.877,288.097C275.226,287.217 272.391,286.741 269.445,286.741C255.687,286.741 244.338,297.137 242.834,310.496C239.698,309.002 236.19,308.165 232.488,308.165C219.732,308.165 209.277,318.096 208.439,330.642Z" style="fill:none;stroke:black;stroke-width:18px;"/>
    </g>
</svg>
