<?xml version="1.0" encoding="UTF-8" standalone="no"?>
<!DOCTYPE svg PUBLIC "-//W3C//DTD SVG 1.1//EN" "http://www.w3.org/Graphics/SVG/1.1/DTD/svg11.dtd">
<svg width="100%" height="100%" viewBox="0 0 500 500" version="1.1" xmlns="http://www.w3.org/2000/svg" xmlns:xlink="http://www.w3.org/1999/xlink" xml:space="preserve" xmlns:serif="http://www.serif.com/" style="fill-rule:evenodd;clip-rule:evenodd;stroke-linecap:round;stroke-linejoin:round;stroke-miterlimit:1.5;">
    <g id="Heavy-Rain" serif:id="Heavy Rain" transform="matrix(0.852685,0,0,0.852685,-5.80556,-1.90477)">
        <g transform="matrix(1.17631,-0.26446,-0.26446,1.39669,62.1086,-60.8257)">
            <path d="M400,420L360,480" style="fill:none;stroke:black;stroke-width:20.54px;"/>
        </g>
        <g transform="matrix(1.24275,-0.364132,-0.364132,1.5462,27.3917,-83.7504)">
            <path d="M400,420L360,480" style="fill:none;stroke:black;stroke-width:20.27px;"/>
        </g>
        <g transform="matrix(1.32885,-0.493272,-0.493272,1.73991,-2.80679,-113.453)">
            <path d="M400,420L360,480" style="fill:none;stroke:black;stroke-width:19.89px;"/>
        </g>
        <g transform="matrix(1.19616,-0.294237,-0.294237,1.44136,-83.3256,-67.6745)">
            <path d="M400,420L360,480" style="fill:none;stroke:black;stroke-width:20.46px;"/>
        </g>
        <g transform="matrix(1.07587,-0.113811,-0.113811,1.17072,-160.991,-26.1766)">
            <path d="M400,420L360,480" style="fill:none;stroke:black;stroke-width:20.89px;"/>
        </g>
        <g transform="matrix(0.934307,0.0985394,0.0985394,0.852191,-243.551,22.6641)">
            <path d="M400,420L360,480" style="fill:none;stroke:black;stroke-width:21.27px;"/>
        </g>
        <g id="Cloud" transform="matrix(1.26316,0,0,1.26316,-210.316,-216.316)">
            <path d="M362.742,352.533C376.194,323.308 405.744,303 440,303C480.767,303 514.87,331.762 523.106,370.087C552.017,371.697 575,395.686 575,425C575,455.355 550.355,480 520,480L280,480L280,479.956C279.338,479.985 278.671,480 278,480C253.164,480 233,459.836 233,435C233,410.164 253.164,390 278,390C284.912,390 291.462,391.562 297.316,394.351C300.126,369.411 321.314,350 347,350C352.5,350 357.793,350.89 362.742,352.533Z" style="fill:none;stroke:black;stroke-width:16.71px;"/>
        </g>
    </g>
</svg>
