<?xml version="1.0" encoding="UTF-8" standalone="no"?>
<!DOCTYPE svg PUBLIC "-//W3C//DTD SVG 1.1//EN" "http://www.w3.org/Graphics/SVG/1.1/DTD/svg11.dtd">
<svg width="100%" height="100%" viewBox="0 0 667 667" version="1.1" xmlns="http://www.w3.org/2000/svg" xmlns:xlink="http://www.w3.org/1999/xlink" xml:space="preserve" xmlns:serif="http://www.serif.com/" style="fill-rule:evenodd;clip-rule:evenodd;stroke-linecap:round;stroke-linejoin:round;stroke-miterlimit:1.5;">
    <g transform="matrix(1.33333,0,0,1.33333,0,0)">
        <g id="Showers" transform="matrix(0.852685,0,0,0.852685,-5.80556,-1.90477)">
            <g transform="matrix(1,0,0,1,-8.20936,0)">
                <g transform="matrix(0.794872,0.307692,0.307692,0.538462,-43.8462,110.769)">
                    <path d="M400,420L360,480" style="fill:none;stroke:black;stroke-width:21.48px;"/>
                </g>
                <g transform="matrix(0.794872,0.307692,0.307692,0.538462,-17.1795,70.7692)">
                    <path d="M400,420L360,480" style="fill:none;stroke:black;stroke-width:21.48px;"/>
                </g>
            </g>
            <g transform="matrix(1,0,0,1,-58.2094,0)">
                <g transform="matrix(0.794872,0.307692,0.307692,0.538462,-43.8462,110.769)">
                    <path d="M400,420L360,480" style="fill:none;stroke:black;stroke-width:21.48px;"/>
                </g>
                <g transform="matrix(0.794872,0.307692,0.307692,0.538462,-17.1795,70.7692)">
                    <path d="M400,420L360,480" style="fill:none;stroke:black;stroke-width:21.48px;"/>
                </g>
            </g>
            <g transform="matrix(1,0,0,1,-108.209,0)">
                <g transform="matrix(0.794872,0.307692,0.307692,0.538462,-43.8462,110.769)">
                    <path d="M400,420L360,480" style="fill:none;stroke:black;stroke-width:21.48px;"/>
                </g>
                <g transform="matrix(0.794872,0.307692,0.307692,0.538462,-17.1795,70.7692)">
                    <path d="M400,420L360,480" style="fill:none;stroke:black;stroke-width:21.48px;"/>
                </g>
            </g>
            <g transform="matrix(1,0,0,1,-158.209,0)">
                <g transform="matrix(0.794872,0.307692,0.307692,0.538462,-43.8462,110.769)">
                    <path d="M400,420L360,480" style="fill:none;stroke:black;stroke-width:21.48px;"/>
                </g>
                <g transform="matrix(0.794872,0.307692,0.307692,0.538462,-17.1795,70.7692)">
                    <path d="M400,420L360,480" style="fill:none;stroke:black;stroke-width:21.48px;"/>
                </g>
            </g>
            <g transform="matrix(1,0,0,1,-208.209,0)">
                <g transform="matrix(0.794872,0.307692,0.307692,0.538462,-43.8462,110.769)">
                    <path d="M400,420L360,480" style="fill:none;stroke:black;stroke-width:21.48px;"/>
                </g>
                <g transform="matrix(0.794872,0.307692,0.307692,0.538462,-17.1795,70.7692)">
                    <path d="M400,420L360,480" style="fill:none;stroke:black;stroke-width:21.48px;"/>
                </g>
            </g>
            <g transform="matrix(1,0,0,1,-258.209,0)">
                <g transform="matrix(0.794872,0.307692,0.307692,0.538462,-43.8462,110.769)">
                    <path d="M400,420L360,480" style="fill:none;stroke:black;stroke-width:21.48px;"/>
                </g>
                <g transform="matrix(0.794872,0.307692,0.307692,0.538462,-17.1795,70.7692)">
                    <path d="M400,420L360,480" style="fill:none;stroke:black;stroke-width:21.48px;"/>
                </g>
            </g>
            <g id="Cloud" transform="matrix(1.26316,0,0,1.26316,-210.316,-216.316)">
                <path d="M362.742,352.533C376.194,323.308 405.744,303 440,303C480.767,303 514.87,331.762 523.106,370.087C552.017,371.697 575,395.686 575,425C575,455.355 550.355,480 520,480L280,480L280,479.956C279.338,479.985 278.671,480 278,480C253.164,480 233,459.836 233,435C233,410.164 253.164,390 278,390C284.912,390 291.462,391.562 297.316,394.351C300.126,369.411 321.314,350 347,350C352.5,350 357.793,350.89 362.742,352.533Z" style="fill:none;stroke:black;stroke-width:16.71px;"/>
            </g>
        </g>
    </g>
</svg>
