<?xml version="1.0" encoding="UTF-8" standalone="no"?>
<!DOCTYPE svg PUBLIC "-//W3C//DTD SVG 1.1//EN" "http://www.w3.org/Graphics/SVG/1.1/DTD/svg11.dtd">
<svg width="100%" height="100%" viewBox="0 0 667 667" version="1.1" xmlns="http://www.w3.org/2000/svg" xmlns:xlink="http://www.w3.org/1999/xlink" xml:space="preserve" xmlns:serif="http://www.serif.com/" style="fill-rule:evenodd;clip-rule:evenodd;stroke-linecap:round;stroke-linejoin:round;stroke-miterlimit:1.5;">
    <g transform="matrix(1.33333,0,0,1.33333,0,0)">
        <g id="Some-clouds-Night" serif:id="Some clouds Night" transform="matrix(0.85331,0,0,0.85331,-14.6612,-82.0004)">
            <g id="Cloud" transform="matrix(1.26316,0,0,1.26316,-200.316,-122.737)">
                <path d="M362.742,352.533C376.194,323.308 405.744,303 440,303C480.767,303 514.87,331.762 523.106,370.087C552.017,371.697 575,395.686 575,425C575,455.355 550.355,480 520,480L280,480L280,479.956C279.338,479.985 278.671,480 278,480C253.164,480 233,459.836 233,435C233,410.164 253.164,390 278,390C284.912,390 291.462,391.562 297.316,394.351C300.126,369.411 321.314,350 347,350C352.5,350 357.793,350.89 362.742,352.533Z" style="fill:none;stroke:black;stroke-width:16.7px;"/>
            </g>
            <g transform="matrix(1,0,0,1,-10.7449,72.9268)">
                <path d="M143.391,299.948C129.829,288.139 119.77,272.398 115,254.508C121.242,256.512 127.898,257.594 134.805,257.594C170.591,257.594 199.646,228.54 199.646,192.753C199.646,172.956 190.754,155.219 176.748,143.32C185.199,140.742 194.169,139.355 203.46,139.355C248.672,139.355 286.273,172.203 293.677,215.314C283.203,224.923 274.643,236.576 268.629,249.641C262.379,247.566 255.692,246.442 248.745,246.442C216.299,246.442 189.535,270.961 185.987,302.465C178.592,298.941 170.318,296.968 161.587,296.968C155.225,296.968 149.105,298.015 143.391,299.948Z" style="fill:none;stroke:black;stroke-width:21.09px;"/>
            </g>
        </g>
    </g>
</svg>
