<?xml version="1.0" encoding="UTF-8" standalone="no"?>
<!DOCTYPE svg PUBLIC "-//W3C//DTD SVG 1.1//EN" "http://www.w3.org/Graphics/SVG/1.1/DTD/svg11.dtd">
<svg width="100%" height="100%" viewBox="0 0 667 667" version="1.1" xmlns="http://www.w3.org/2000/svg" xmlns:xlink="http://www.w3.org/1999/xlink" xml:space="preserve" xmlns:serif="http://www.serif.com/" style="fill-rule:evenodd;clip-rule:evenodd;stroke-linecap:round;stroke-linejoin:round;stroke-miterlimit:1.5;">
    <g transform="matrix(1.33333,0,0,1.33333,0,0)">
        <g id="Some-clouds-Day" serif:id="Some clouds Day" transform="matrix(0.853239,0,0,0.853239,-14.6238,-81.966)">
            <g transform="matrix(0.081723,0,0,0.630435,49.2413,131.405)">
                <path d="M40,280L580,280" style="fill:none;stroke:black;stroke-width:46.93px;"/>
            </g>
            <g transform="matrix(0.0578149,0.0577589,-0.445569,0.446,217.377,78.2555)">
                <path d="M40,280L580,280" style="fill:none;stroke:black;stroke-width:46.93px;"/>
            </g>
            <g transform="matrix(0.630435,0,0,0.081723,2.07543,162.11)">
                <path d="M310,10L310,550" style="fill:none;stroke:black;stroke-width:46.93px;"/>
            </g>
            <g transform="matrix(0.446,0.445569,-0.0577589,0.0578149,162.309,66.6422)">
                <path d="M310,10L310,550" style="fill:none;stroke:black;stroke-width:46.93px;"/>
            </g>
            <g transform="matrix(1,0,0,1,6.25065,113.579)">
                <path d="M148.022,256.418C128.433,242.741 115.607,220.03 115.607,194.348C115.607,152.594 149.506,118.696 191.26,118.696C230.019,118.696 262.01,147.907 266.398,185.495C260.517,192.617 255.539,200.505 251.634,208.989C245.383,206.914 238.697,205.789 231.749,205.789C199.304,205.789 172.54,230.308 168.991,261.812C162.571,258.753 155.49,256.863 148.022,256.418Z" style="fill:none;stroke:black;stroke-width:21.1px;"/>
            </g>
            <g id="Cloud" transform="matrix(1.26316,0,0,1.26316,-200.316,-122.737)">
                <path d="M362.742,352.533C376.194,323.308 405.744,303 440,303C480.767,303 514.87,331.762 523.106,370.087C552.017,371.697 575,395.686 575,425C575,455.355 550.355,480 520,480L280,480L280,479.956C279.338,479.985 278.671,480 278,480C253.164,480 233,459.836 233,435C233,410.164 253.164,390 278,390C284.912,390 291.462,391.562 297.316,394.351C300.126,369.411 321.314,350 347,350C352.5,350 357.793,350.89 362.742,352.533Z" style="fill:none;stroke:black;stroke-width:16.7px;"/>
            </g>
        </g>
    </g>
</svg>
